<svg xmlns="http://www.w3.org/2000/svg" width="2000" height="1700" viewBox="0 0 2000 1700" role="img" aria-labelledby="title desc">
  <title id="title">Artifact Miner Hybrid Runtime and Deployment Architecture</title>
  <desc id="desc">Architecture diagram showing browser and CLI clients, Docker Compose containers for frontend, API, worker, migration job, optional Ollama service, and attached PostgreSQL/blobstore volumes with key data flows.</desc>

  <defs>
    <style>
      .bg { fill: #F8FAFC; }
      .titleText { font: 700 34px 'IBM Plex Sans', 'Segoe UI', Arial, sans-serif; fill: #0F172A; }
      .subtitleText { font: 500 17px 'IBM Plex Sans', 'Segoe UI', Arial, sans-serif; fill: #334155; }
      .nodeLabel { font: 600 20px 'IBM Plex Sans', 'Segoe UI', Arial, sans-serif; fill: #0F172A; text-anchor: middle; dominant-baseline: middle; }
      .smallNodeLabel { font: 600 17px 'IBM Plex Sans', 'Segoe UI', Arial, sans-serif; fill: #0F172A; text-anchor: middle; dominant-baseline: middle; }
      .edgeLabel { font: 500 14px 'IBM Plex Sans', 'Segoe UI', Arial, sans-serif; fill: #0F172A; }
      .legendLabel { font: 500 15px 'IBM Plex Sans', 'Segoe UI', Arial, sans-serif; fill: #0F172A; }
      .legendFlowId { font: 700 14px 'IBM Plex Sans', 'Segoe UI', Arial, sans-serif; fill: #0F172A; text-anchor: end; }
      .flowLegendLabel { font: 500 13px 'IBM Plex Sans', 'Segoe UI', Arial, sans-serif; fill: #0F172A; }
      .flowMarkerCircle { fill: #FFFFFF; stroke: #1E293B; stroke-width: 1.5; }
      .flowMarkerText { font: 700 11px 'IBM Plex Sans', 'Segoe UI', Arial, sans-serif; fill: #1E293B; text-anchor: middle; dominant-baseline: middle; }
      .scopeNote { font: 500 14px 'IBM Plex Sans', 'Segoe UI', Arial, sans-serif; fill: #475569; }
      .boundary { fill: #F8FAFC; stroke: #0F172A; stroke-width: 2; }
      .client { fill: #FFF7ED; stroke: #9A3412; stroke-width: 2; }
      .serviceFrontend { fill: #E2E8F0; stroke: #334155; stroke-width: 2; }
      .serviceApi { fill: #DBEAFE; stroke: #1D4ED8; stroke-width: 2; }
      .serviceWorker { fill: #DCFCE7; stroke: #166534; stroke-width: 2; }
      .serviceMigrate { fill: #FDE68A; stroke: #92400E; stroke-width: 2; }
      .inner { fill: #FFFFFF; stroke: #334155; stroke-width: 1.5; }
      .optional { fill: #F1F5F9; stroke: #334155; stroke-width: 2; stroke-dasharray: 10 8; }
      .cylinder { fill: #ECFDF5; stroke: #166534; stroke-width: 2; }
      .docBox { fill: #ECFCCB; stroke: #3F6212; stroke-width: 1.7; }
      .edge { fill: none; stroke: #334155; stroke-width: 2; marker-end: url(#arrowSolid); }
      .edgeDashed { fill: none; stroke: #334155; stroke-width: 2; stroke-dasharray: 10 7; marker-end: url(#arrowDashed); }
    </style>

    <marker id="arrowSolid" viewBox="0 0 10 10" refX="9" refY="5" markerWidth="9" markerHeight="9" orient="auto-start-reverse">
      <path d="M 0 0 L 10 5 L 0 10 z" fill="#334155"/>
    </marker>
    <marker id="arrowDashed" viewBox="0 0 10 10" refX="9" refY="5" markerWidth="9" markerHeight="9" orient="auto-start-reverse">
      <path d="M 0 0 L 10 5 L 0 10 z" fill="#334155"/>
    </marker>

    <symbol id="rectShape" viewBox="0 0 100 50" preserveAspectRatio="none">
      <rect x="0" y="0" width="100" height="50" rx="8" ry="8"/>
    </symbol>
  </defs>

  <rect class="bg" x="0" y="0" width="2000" height="1700"/>

  <text class="titleText" x="60" y="58">Artifact Miner - Hybrid Runtime + Deployment Architecture</text>
  <text class="subtitleText" x="60" y="90">System boundaries, service responsibilities, and runtime data flow</text>

  <!-- Clients -->
  <g id="C1">
    <use href="#rectShape" x="60" y="230" width="230" height="130" class="client"/>
    <text class="nodeLabel" x="175" y="295">User Browser</text>
  </g>

  <g id="C2">
    <use href="#rectShape" x="60" y="420" width="230" height="110" class="client"/>
    <text class="smallNodeLabel" x="175" y="475">CLI / curl / scripts</text>
  </g>

  <!-- Docker compose boundary -->
  <g id="B1">
    <rect x="320" y="100" width="1640" height="1020" rx="20" ry="20" class="boundary"/>
    <text class="nodeLabel" x="1140" y="136">Docker Compose Stack</text>
  </g>

  <!-- Services -->
  <g id="S1">
    <use href="#rectShape" x="380" y="220" width="300" height="180" class="serviceFrontend"/>
    <text class="nodeLabel" x="530" y="250">frontend (React)</text>
    <text class="smallNodeLabel" x="530" y="300">UI auth, upload,</text>
    <text class="smallNodeLabel" x="530" y="326">dashboard views</text>
  </g>

  <g id="S2">
    <use href="#rectShape" x="740" y="220" width="470" height="360" class="serviceApi"/>
    <text class="nodeLabel" x="975" y="250">api (FastAPI + Uvicorn)</text>

    <g id="S2a">
      <use href="#rectShape" x="770" y="280" width="190" height="90" class="inner"/>
      <text class="smallNodeLabel" x="865" y="325">Auth + Consent</text>
    </g>
    <g id="S2b">
      <use href="#rectShape" x="980" y="280" width="200" height="90" class="inner"/>
      <text class="smallNodeLabel" x="1080" y="318">Ingest + Report +</text>
      <text class="smallNodeLabel" x="1080" y="340">Generation APIs</text>
    </g>
    <g id="S2c">
      <use href="#rectShape" x="770" y="390" width="410" height="130" class="inner"/>
      <text class="smallNodeLabel" x="975" y="440">Image + Resume PDF + Portfolio endpoints</text>
    </g>
  </g>

  <g id="S3">
    <use href="#rectShape" x="1260" y="220" width="430" height="420" class="serviceWorker"/>
    <text class="nodeLabel" x="1475" y="250">worker (poller)</text>

    <g id="S3a">
      <use href="#rectShape" x="1290" y="280" width="170" height="90" class="inner"/>
      <text class="smallNodeLabel" x="1375" y="325">parser</text>
    </g>
    <g id="S3b">
      <use href="#rectShape" x="1470" y="280" width="190" height="90" class="inner"/>
      <text class="smallNodeLabel" x="1565" y="325">git_metrics</text>
    </g>
    <g id="S3c">
      <use href="#rectShape" x="1290" y="390" width="170" height="90" class="inner"/>
      <text class="smallNodeLabel" x="1375" y="435">local_ml</text>
    </g>
    <g id="S3d">
      <use href="#rectShape" x="1470" y="390" width="190" height="90" class="inner"/>
      <text class="smallNodeLabel" x="1565" y="435">external_llm</text>
    </g>
  </g>

  <g id="S7">
    <use href="#rectShape" x="760" y="600" width="220" height="80" class="serviceMigrate"/>
    <text class="smallNodeLabel" x="870" y="640">migrate (Alembic one-shot)</text>
  </g>

  <g id="S8">
    <path class="docBox" d="M1290 510 H1615 L1660 555 V600 H1290 Z"/>
    <path d="M1615 510 V555 H1660" fill="none" stroke="#3F6212" stroke-width="1.7"/>
    <text class="smallNodeLabel" x="1475" y="548">ML assets in worker image</text>
    <text class="smallNodeLabel" x="1475" y="572">(src/ml/artifacts, models)</text>
  </g>

  <g id="S6">
    <use href="#rectShape" x="1710" y="240" width="220" height="170" class="optional"/>
    <text class="smallNodeLabel" x="1820" y="304">ollama</text>
    <text class="smallNodeLabel" x="1820" y="332">(optional profile)</text>
  </g>

  <!-- Cylinders -->
  <g id="S4">
    <ellipse cx="920" cy="734" rx="160" ry="24" class="cylinder"/>
    <rect x="760" y="734" width="320" height="172" class="cylinder"/>
    <ellipse cx="920" cy="906" rx="160" ry="24" class="cylinder"/>
    <text class="nodeLabel" x="920" y="810">db (PostgreSQL)</text>
  </g>

  <g id="S5">
    <ellipse cx="1270" cy="734" rx="150" ry="24" class="cylinder"/>
    <rect x="1120" y="734" width="300" height="172" class="cylinder"/>
    <ellipse cx="1270" cy="906" rx="150" ry="24" class="cylinder"/>
    <text class="nodeLabel" x="1270" y="810">blobstore volume</text>
  </g>

  <!-- Connectors -->
  <g id="connectors">
    <path id="A01" class="edge" d="M290 295 H380"/>
    <path id="A02" class="edge" d="M680 300 H740"/>
    <path id="A03" class="edge" d="M290 475 C420 475 560 340 740 340"/>
    <path id="A04" class="edge" d="M870 680 V710"/>
    <path id="A05" class="edge" d="M980 580 C980 640 940 680 930 710"/>
    <path id="A06" class="edge" d="M1120 520 C1160 600 1220 660 1250 710"/>
    <path id="A07" class="edgeDashed" d="M830 580 C820 650 840 680 875 710"/>
    <path id="A08" class="edgeDashed" d="M1420 640 C1360 680 1100 690 965 710"/>
    <path id="A09" class="edge" d="M1380 640 C1360 670 1320 690 1290 710"/>
    <path id="A10" class="edge" d="M1450 640 C1450 600 1460 590 1470 600"/>
    <path id="A11" class="edgeDashed" d="M1690 430 C1730 390 1760 360 1710 320"/>
    <path id="A12" class="edge" d="M740 260 C590 210 420 210 290 250"/>
  </g>

  <!-- Connector origin markers -->
  <g id="connector-origin-markers" aria-label="Numbered arrow origin markers">
    <circle class="flowMarkerCircle" cx="274" cy="282" r="11"/><text class="flowMarkerText" x="274" y="282">1</text>
    <circle class="flowMarkerCircle" cx="664" cy="286" r="11"/><text class="flowMarkerText" x="664" y="286">2</text>
    <circle class="flowMarkerCircle" cx="274" cy="460" r="11"/><text class="flowMarkerText" x="274" y="460">3</text>
    <circle class="flowMarkerCircle" cx="856" cy="666" r="11"/><text class="flowMarkerText" x="856" y="666">4</text>
    <circle class="flowMarkerCircle" cx="966" cy="566" r="11"/><text class="flowMarkerText" x="966" y="566">5</text>
    <circle class="flowMarkerCircle" cx="1106" cy="506" r="11"/><text class="flowMarkerText" x="1106" y="506">6</text>
    <circle class="flowMarkerCircle" cx="816" cy="566" r="11"/><text class="flowMarkerText" x="816" y="566">7</text>
    <circle class="flowMarkerCircle" cx="1406" cy="626" r="11"/><text class="flowMarkerText" x="1406" y="626">8</text>
    <circle class="flowMarkerCircle" cx="1366" cy="626" r="11"/><text class="flowMarkerText" x="1366" y="626">9</text>
    <circle class="flowMarkerCircle" cx="1436" cy="626" r="11"/><text class="flowMarkerText" x="1436" y="626">10</text>
    <circle class="flowMarkerCircle" cx="1676" cy="416" r="11"/><text class="flowMarkerText" x="1676" y="416">11</text>
    <circle class="flowMarkerCircle" cx="726" cy="246" r="11"/><text class="flowMarkerText" x="726" y="246">12</text>
  </g>

  <!-- Legend -->
  <g id="legend" transform="translate(60,1160)">
    <rect x="0" y="0" width="1880" height="470" rx="14" ry="14" fill="#FFFFFF" stroke="#334155" stroke-width="2"/>
    <text class="smallNodeLabel" x="940" y="34">Legend</text>

    <path d="M40 78 H180" class="edge"/>
    <text class="legendLabel" x="200" y="83">Synchronous / required flow</text>

    <path d="M40 114 H180" class="edgeDashed"/>
    <text class="legendLabel" x="200" y="119">Asynchronous queue flow</text>

    <path d="M40 150 H180" class="edgeDashed"/>
    <text class="legendLabel" x="200" y="155">Optional or consent-gated flow</text>

    <circle class="flowMarkerCircle" cx="1200" cy="82" r="11"/>
    <text class="flowMarkerText" x="1200" y="82">1</text>
    <text class="legendLabel" x="1222" y="87">Number marks arrow start; match to the flow list below.</text>

    <text class="legendLabel" x="40" y="198">Flow Data (mapped to numbered arrow starts)</text>

    <text class="legendFlowId" x="66" y="236">1.</text><text class="flowLegendLabel" x="82" y="236">HTTP :3000</text>
    <text class="legendFlowId" x="66" y="268">2.</text><text class="flowLegendLabel" x="82" y="268">REST/JSON :5001</text>
    <text class="legendFlowId" x="66" y="300">3.</text><text class="flowLegendLabel" x="82" y="300">REST/JSON</text>
    <text class="legendFlowId" x="66" y="332">4.</text><text class="flowLegendLabel" x="82" y="332">alembic upgrade head</text>
    <text class="legendFlowId" x="66" y="364">5.</text><text class="flowLegendLabel" x="82" y="364">SQLAlchemy read/write</text>
    <text class="legendFlowId" x="66" y="396">6.</text><text class="flowLegendLabel" x="82" y="396">blob/image file IO</text>

    <text class="legendFlowId" x="980" y="236">7.</text><text class="flowLegendLabel" x="998" y="236">enqueue analyses (status=pending)</text>
    <text class="legendFlowId" x="980" y="268">8.</text><text class="flowLegendLabel" x="998" y="268">claim jobs + persist outputs</text>
    <text class="legendFlowId" x="980" y="300">9.</text><text class="flowLegendLabel" x="998" y="300">read snapshot file blobs</text>
    <text class="legendFlowId" x="980" y="332">10.</text><text class="flowLegendLabel" x="998" y="332">load tokenizer/model/classifier</text>
    <text class="legendFlowId" x="980" y="364">11.</text><text class="flowLegendLabel" x="998" y="364">ollama run (consent-gated)</text>
    <text class="legendFlowId" x="980" y="396">12.</text><text class="flowLegendLabel" x="998" y="396">dashboard JSON + PDF/image responses</text>
  </g>

  <text class="scopeNote" x="60" y="1668">As implemented in src/api, src/worker, docker-compose.yml (March 1, 2026 snapshot).</text>
</svg>
